<svg xmlns="http://www.w3.org/2000/svg" xmlns:xlink="http://www.w3.org/1999/xlink" width="50" height="50" viewBox="0 0 50 50">
  <defs>
    <clipPath id="clip-path">
      <rect id="Retângulo_6" data-name="Retângulo 6" width="50" height="50" transform="translate(1286 11)" fill="#fff"/>
    </clipPath>
  </defs>
  <g id="cart" transform="translate(-1286 -11)" clip-path="url(#clip-path)">
    <path id="shopping-cart-regular" d="M47.916,5.556H12.524l-.757-3.872A2.083,2.083,0,0,0,9.722,0H1.042A1.042,1.042,0,0,0,0,1.042V3.125A1.042,1.042,0,0,0,1.042,4.167H8.007l6.041,30.877a5.555,5.555,0,1,0,8.818,1.068h12.6a5.556,5.556,0,1,0,8.658-1.228l.09-.413a2.083,2.083,0,0,0-2.036-2.526H17.687l-.815-4.167H43.991a2.083,2.083,0,0,0,2.036-1.641L49.952,8.081A2.083,2.083,0,0,0,47.916,5.556ZM18.056,40.972a2.083,2.083,0,1,1,2.083-2.083A2.086,2.086,0,0,1,18.056,40.972Zm22.222,0a2.083,2.083,0,1,1,2.083-2.083A2.086,2.086,0,0,1,40.278,40.972Zm2.035-17.361H16.057L13.339,9.722H45.331Z" transform="translate(1286 13.778)" fill="#fff"/>
  </g>
</svg>
