<svg xmlns="http://www.w3.org/2000/svg" xmlns:xlink="http://www.w3.org/1999/xlink" width="20" height="20" viewBox="0 0 20 20">
  <defs>
    <clipPath id="clip-path">
      <rect id="Retângulo_19" data-name="Retângulo 19" width="20" height="20" transform="translate(41 91)" fill="#fff" stroke="#707070" stroke-width="1"/>
    </clipPath>
  </defs>
  <g id="fighter" transform="translate(-41 -91)" clip-path="url(#clip-path)">
    <g id="fist" transform="translate(41 91)">
      <path id="Caminho_110" data-name="Caminho 110" d="M9.141,1.7A.586.586,0,0,0,8.971.886L7.747.094a.586.586,0,0,0-.806.167L5.426,2.534,7.8,3.719Z" fill="#fff"/>
      <path id="Caminho_111" data-name="Caminho 111" d="M11.223,5.432l1.109-1.664a.586.586,0,0,0-.169-.817l-1.224-.792a.586.586,0,0,0-.806.167L8.853,4.247Z" fill="#fff"/>
      <path id="Caminho_112" data-name="Caminho 112" d="M11.489,8.381l1.073.477a.586.586,0,0,0,.726-.21L15.272,5.67a.586.586,0,0,0-.169-.817l-.972-.629a.586.586,0,0,0-.806.167L11.239,7.52a.586.586,0,0,0,.25.861Z" fill="#fff"/>
      <path id="Caminho_113" data-name="Caminho 113" d="M18.043,6.756l-.972-.629a.586.586,0,0,0-.806.167l-1.78,2.669a.586.586,0,0,0,.25.86l1.073.477a.586.586,0,0,0,.726-.21l1.678-2.518A.586.586,0,0,0,18.043,6.756Z" fill="#fff"/>
      <path id="Caminho_114" data-name="Caminho 114" d="M16.046,11.523h0a1.746,1.746,0,0,1-.714-.152L9.856,8.938h-.37l2.461,4.923a.586.586,0,0,1-.288.8.6.6,0,0,1-.768-.289L8.176,8.938H5.669a.6.6,0,0,1-.6-.558.586.586,0,0,1,.585-.614h3.7A.586.586,0,0,0,9.841,7.5l.358-.538a.586.586,0,0,0-.226-.849l-4.74-2.37a.586.586,0,0,0-.75.2l-2.7,4.044a.586.586,0,0,0,.017.674L6.123,14.5a.586.586,0,0,1,.1.491L5.15,19.272A.586.586,0,0,0,5.718,20H14.58a.586.586,0,0,0,.586-.586V16.287a.586.586,0,0,1,.26-.487l.364-.243A3.45,3.45,0,0,0,17.33,12.68V10.965a1.753,1.753,0,0,1-1.284.558Z" fill="#fff"/>
    </g>
  </g>
</svg>
