<svg xmlns="http://www.w3.org/2000/svg" xmlns:xlink="http://www.w3.org/1999/xlink" width="20" height="20" viewBox="0 0 20 20">
  <defs>
    <clipPath id="clip-path">
      <rect id="Retângulo_16" data-name="Retângulo 16" width="20" height="20" transform="translate(39 86)" fill="#fff" stroke="#707070" stroke-width="1"/>
    </clipPath>
  </defs>
  <g id="flyer" transform="translate(-39 -86)" clip-path="url(#clip-path)">
    <g id="pen-feather-black-diagonal-shape-of-a-bird-wing" transform="translate(39 86)">
      <path id="Caminho_103" data-name="Caminho 103" d="M0,19.96S6.489-.785,20,.065a9.248,9.248,0,0,1-5.9,3.591,9.5,9.5,0,0,0,3.564-.292S16.7,6.45,11.49,6.874c0,0,2.873.745,4.149.319,0,0-.346,2.3-5.653,3.444-.315.067-2.433.6-.731.81a12.159,12.159,0,0,0,3.086.213s-2.1,3.138-7.235,2.872a5.23,5.23,0,0,0-.745,0Z" fill="#fff"/>
    </g>
  </g>
</svg>
