<svg xmlns="http://www.w3.org/2000/svg" xmlns:xlink="http://www.w3.org/1999/xlink" width="20" height="20" viewBox="0 0 20 20">
  <defs>
    <clipPath id="clip-path">
      <rect id="Retângulo_20" data-name="Retângulo 20" width="20" height="20" transform="translate(29 86)" fill="#fff" stroke="#707070" stroke-width="1"/>
    </clipPath>
  </defs>
  <g id="ground" transform="translate(-29 -86)" clip-path="url(#clip-path)">
    <g id="grass_1_" data-name="grass (1)" transform="translate(29 86)">
      <g id="Grupo_88" data-name="Grupo 88">
        <g id="Grupo_87" data-name="Grupo 87">
          <path id="Caminho_115" data-name="Caminho 115" d="M5.742,11.226a3.39,3.39,0,0,1,.484-.694A7.055,7.055,0,0,0,2.068,6.569a8.633,8.633,0,0,1,2.21,4.911A2.059,2.059,0,0,1,5.742,11.226Z" fill="#fff"/>
          <path id="Caminho_116" data-name="Caminho 116" d="M11.634,11.013a2.078,2.078,0,0,1,1.257-.144,7.866,7.866,0,0,1,1.074-2.153c.045-1.125.262-4.971,1.133-6.689-2.545.655-4.524,3.829-4.723,7.795A3.414,3.414,0,0,1,11.634,11.013Z" fill="#fff"/>
          <path id="Caminho_117" data-name="Caminho 117" d="M6.79,10.031a3.354,3.354,0,0,1,2.816-.518C9.324,5.692,7.382,2.665,4.9,2.027,5.773,3.745,5.99,7.59,6.035,8.718A7.79,7.79,0,0,1,6.79,10.031Z" fill="#fff"/>
          <path id="Caminho_118" data-name="Caminho 118" d="M18.435,14.417a.357.357,0,0,1-.294-.239,1.24,1.24,0,0,0-2.042-.5.357.357,0,0,1-.557-.079,1.235,1.235,0,0,0-1.078-.63.9.9,0,0,0-.125.013l-.04.006a.357.357,0,0,1-.4-.287,1.425,1.425,0,0,0-2.206-.91.357.357,0,0,1-.525-.142,2.676,2.676,0,0,0-4.9.132.357.357,0,0,1-.448.2,1.4,1.4,0,0,0-1.787.807.358.358,0,0,1-.42.212.871.871,0,0,0-1.1.74.356.356,0,0,1-.384.308c-.055,0-.11-.009-.166-.009A1.966,1.966,0,0,0,0,16.008v1.964H20V16.187A1.786,1.786,0,0,0,18.435,14.417Zm-13.8-.284a.357.357,0,0,1-.421.279.546.546,0,0,0-.108-.011.536.536,0,0,0-.536.536.549.549,0,0,0,.011.108.357.357,0,0,1-.7.142,1.251,1.251,0,0,1,1.474-1.474.357.357,0,0,1,.279.421Zm2.935-1.755h0a.357.357,0,0,1-.674-.238,1.965,1.965,0,0,1,3.087-.873.357.357,0,1,1-.449.555,1.236,1.236,0,0,0-.785-.277A1.252,1.252,0,0,0,7.571,12.377Zm4.1,3.928A.357.357,0,0,1,11,16.068a1.251,1.251,0,0,0-1.6-1.6.357.357,0,1,1-.238-.673,1.965,1.965,0,0,1,2.507,2.507ZM15,15.116a.357.357,0,0,1-.357-.357.357.357,0,0,0-.536-.309.357.357,0,0,1-.357-.619,1.072,1.072,0,0,1,1.607.928A.357.357,0,0,1,15,15.116Zm3.929,1.429a.357.357,0,0,1-.357-.357.357.357,0,0,0-.536-.309.357.357,0,0,1-.357-.619,1.072,1.072,0,0,1,1.607.928A.357.357,0,0,1,18.929,16.544Z" fill="#fff"/>
          <path id="Caminho_119" data-name="Caminho 119" d="M14.519,12.259a1.952,1.952,0,0,1,1.089.375A9.3,9.3,0,0,1,17.941,6.56a7.06,7.06,0,0,0-4.38,4.558A2.14,2.14,0,0,1,14.519,12.259Z" fill="#fff"/>
        </g>
      </g>
    </g>
  </g>
</svg>
