<svg xmlns="http://www.w3.org/2000/svg" xmlns:xlink="http://www.w3.org/1999/xlink" width="20" height="20" viewBox="0 0 20 20">
  <defs>
    <clipPath id="clip-path">
      <rect id="Retângulo_21" data-name="Retângulo 21" width="20" height="20" transform="translate(32 86)" fill="#fff" stroke="#707070" stroke-width="1"/>
    </clipPath>
  </defs>
  <g id="inseto" transform="translate(-32 -86)" clip-path="url(#clip-path)">
    <g id="fly-shape" transform="translate(32 86)">
      <g id="Grupo_89" data-name="Grupo 89">
        <path id="Caminho_120" data-name="Caminho 120" d="M.254,4.4a.414.414,0,0,0-.047-.081L.179,4.281A.072.072,0,0,0,.05,4.3a1.054,1.054,0,0,0-.045.447.726.726,0,0,0,.4.613,1.3,1.3,0,0,0,.6.131h.05c.092,0,.184.005.271.013l.009,0c.007.1.073.168.2.189.11.018.221.031.332.043a1.547,1.547,0,0,1,1.006.492,4.109,4.109,0,0,1,.489.693l.1.156q.367.593.737,1.184a.742.742,0,0,0,.484.344c.15.032.3.057.45.081l.164.027-.312.437c-.255.356-.51.713-.76,1.073-.609.877-1.169,1.764-1.663,2.636a17.613,17.613,0,0,0-1.3,2.756,5.21,5.21,0,0,0-.3,1.2,3.819,3.819,0,0,0,.167,1.562,1.331,1.331,0,0,0,.386.631,1.242,1.242,0,0,0,1.194.254,5.4,5.4,0,0,0,1.185-.509,24.382,24.382,0,0,0,2.563-1.56c.22-.155.438-.321.649-.481l.032-.025.145-.1.165-.12.017.027a.071.071,0,0,0,.069.033.6.6,0,0,0,.263-.11.633.633,0,0,0-.138.2.072.072,0,0,0,.086.1.389.389,0,0,0,.1-.045.413.413,0,0,0-.04.1.072.072,0,0,0,.093.087A.384.384,0,0,0,8,16.8l-.014.02-.034.047a.072.072,0,0,0,.015.1l.025.019A.072.072,0,0,0,8.061,17a.426.426,0,0,0,.1-.063.4.4,0,0,0-.034.1.072.072,0,0,0,.091.084.3.3,0,0,0,.1-.046.455.455,0,0,0-.022.1.073.073,0,0,0,.109.07.4.4,0,0,0,.068-.051v0l-.011.041a.072.072,0,0,0,.036.083l.024.012a.073.073,0,0,0,.087-.015l.006-.006v.008a.072.072,0,0,0,.116.063.457.457,0,0,0,.124-.148.446.446,0,0,0-.015.17.072.072,0,0,0,.047.06.073.073,0,0,0,.075-.015.663.663,0,0,0,.16-.293c.009-.026.017-.051.027-.076h0v.005c-.011.053-.021.1-.029.154s-.013.1-.018.15l-.007.063a.072.072,0,0,0,.06.079l.033.006a.072.072,0,0,0,.072-.031.467.467,0,0,0,.038-.067.365.365,0,0,0,.011.056l.005.023c.007.034.06.058.1.058h0a.072.072,0,0,0,.052-.024l0,.014a.072.072,0,0,0,.049.055.071.071,0,0,0,.072-.017.307.307,0,0,0,.032-.036v.007c0,.038.07.069.1.065a.073.073,0,0,0,.058-.033.072.072,0,0,0,.058.034l.039,0a.072.072,0,0,0,.068-.041.677.677,0,0,0,.051-.31c0-.034,0-.067,0-.1h.012v0c0,.056,0,.111,0,.166,0,.139.012.219.12.269a.072.072,0,0,0,.1-.045l.008.014a.072.072,0,0,0,.127,0,.328.328,0,0,0,.015-.035l.011.021c.015.033.077.042.111.033a.072.072,0,0,0,.053-.064v0a.072.072,0,0,0,.119-.01.25.25,0,0,0,.034-.1.432.432,0,0,0,.044.073.073.073,0,0,0,.073.027l.035-.008a.073.073,0,0,0,.056-.082l-.057-.367c.01.025.019.051.027.078a.531.531,0,0,0,.169.281.072.072,0,0,0,.115-.071,1.75,1.75,0,0,0-.055-.213.437.437,0,0,0,.172.225.073.073,0,0,0,.107-.04.078.078,0,0,0,.021.009.073.073,0,0,0,.062-.014l.04-.032a.072.072,0,0,0,.024-.079l-.008-.024a.337.337,0,0,0,.067.045.072.072,0,0,0,.105-.066.353.353,0,0,0-.018-.1.344.344,0,0,0,.065.042.073.073,0,0,0,.074-.006l.026-.018a.072.072,0,0,0,.018-.1l-.047-.069a.434.434,0,0,0,.118.075.073.073,0,0,0,.075-.012l.024-.021a.072.072,0,0,0,.009-.1l-.039-.048a.41.41,0,0,0,.076.046.073.073,0,0,0,.079-.012l.03-.027a.072.072,0,0,0,.009-.1l-.035-.045a.308.308,0,0,0,.074.029.072.072,0,0,0,.068-.018l.022-.021a.072.072,0,0,0,0-.1l-.132-.156h0a.556.556,0,0,0,.271.112.07.07,0,0,0,.067-.036l.017-.029,0,0c.209.162.425.329.642.487a24.131,24.131,0,0,0,3.038,1.871,4.763,4.763,0,0,0,1.13.459,1.393,1.393,0,0,0,.31.036,1.2,1.2,0,0,0,1.1-.71,3.3,3.3,0,0,0,.273-1.178,4.6,4.6,0,0,0-.36-1.952,15.362,15.362,0,0,0-1-2.143c-.292-.521-.641-1.134-1.01-1.729-.534-.862-1.155-1.769-1.9-2.774-.027-.037-.054-.075-.082-.114l.157-.025c.145-.023.3-.047.443-.08a.609.609,0,0,0,.372-.206c.085-.113.185-.246.274-.385s.176-.277.263-.416c.075-.121.151-.242.228-.362l.148-.233c.142-.226.29-.459.449-.675a1.462,1.462,0,0,1,1.022-.586l.118-.015c.1-.013.2-.025.306-.046.056-.011.162-.074.164-.154a.062.062,0,0,1,.005-.03.2.2,0,0,1,.061-.009l.151-.006c.112,0,.227-.008.341-.02a.842.842,0,0,0,.659-.366.974.974,0,0,0,.093-.753.1.1,0,0,0-.035-.056l-.011-.011a.069.069,0,0,0-.063-.022A.072.072,0,0,0,19.8,4.3l-.025.047c-.018.032-.034.063-.048.094a1.076,1.076,0,0,1-.752.658c-.2.048-.394.092-.592.136-.158.035-.316.071-.474.108a1.367,1.367,0,0,0-.66.35l-.113.112c-.147.144-.3.292-.434.452-.364.431-.754.9-1.133,1.387a.872.872,0,0,1-.681.366l-.127,0a1.094,1.094,0,0,0-.5.092l-.373-.5-.222-.315a1.085,1.085,0,0,0-.134-.159l-.082-.109h.124a.072.072,0,0,0,.072-.063l0-.025a.072.072,0,0,0-.057-.08L13.5,6.837l-.2-.04a.1.1,0,0,1-.063-.043h.373c.037,0,.07-.049.074-.086a.072.072,0,0,0-.053-.078l-.02-.006a.393.393,0,0,0-.061-.015c-.1-.014-.194-.026-.293-.038a.535.535,0,0,0-.061-.005l0-.023.119-.01a1.265,1.265,0,0,0,.364-.063.072.072,0,0,0,.047-.074l0-.021a.072.072,0,0,0-.072-.066h-.5l-.008-.04.433-.1a.072.072,0,0,0,.055-.083L13.629,6a.072.072,0,0,0-.081-.059L13.122,6l.407-.123a.086.086,0,0,0,.046-.1l-.006-.025a.073.073,0,0,0-.083-.053l-.464.085-.005-.015.088-.023a1.149,1.149,0,0,0,.373-.144.072.072,0,0,0-.026-.131.311.311,0,0,0-.1-.005.547.547,0,0,0,.072-.1l.123-.216c.07-.122.139-.244.207-.367L14.187,4q.405-.735.814-1.468a2.266,2.266,0,0,1,.54-.685.211.211,0,0,1,.205-.053,1.389,1.389,0,0,0,.667,0,6.728,6.728,0,0,0,1.112-.383.664.664,0,0,0,.37-.37c.023-.056.042-.114.06-.172L17.98.8a.072.072,0,0,0-.033-.086L17.914.694a.073.073,0,0,0-.085.01l-.042.038a1.021,1.021,0,0,0-.1.1,1.186,1.186,0,0,0-.1.134l-.023.035a.223.223,0,0,1-.172.109l-.484.057c-.284.034-.568.069-.853.1a1.829,1.829,0,0,0-.657.189,1.21,1.21,0,0,0-.461.5c-.134.227-.264.461-.389.688-.062.112-.124.225-.187.336l-.041.074a1.074,1.074,0,0,1-.331.422.216.216,0,0,0-.078.12.458.458,0,0,1-.152.214l-.042.038a1.47,1.47,0,0,0-.246.265c-.164.248-.317.507-.466.757l-.058.1c-.009.014-.014.021-.015.023a.623.623,0,0,0-.225-.009l-.06.005.1-.113a.072.072,0,0,0,0-.1l-.022-.024a.073.073,0,0,0-.1-.009l-.146.111.124-.154a.072.072,0,0,0-.008-.1l-.025-.023a.072.072,0,0,0-.1,0l-.083.072.048-.079a.072.072,0,0,0-.019-.1l-.028-.02a.073.073,0,0,0-.1.011l-.035.04a.072.072,0,0,0,0-.061.444.444,0,0,0,.169-.294.429.429,0,0,0-.08-.315c.06-.009.119-.019.177-.033a.565.565,0,0,0,.445-.666.914.914,0,0,0-.411-.6,1.693,1.693,0,0,0-1.237-.3c-.007,0-.013,0-.012.009a.07.07,0,0,1-.007-.019.437.437,0,0,0-.558-.317A.749.749,0,0,0,10.563,2l-.013.008-.018,0a.706.706,0,0,0-1.075.011.69.69,0,0,0-.36-.138c-.192,0-.311.165-.407.354l-.025,0a1.565,1.565,0,0,0-1.449.515.736.736,0,0,0-.182.63.549.549,0,0,0,.449.428,1.269,1.269,0,0,0,.171.032.546.546,0,0,0-.071.138.422.422,0,0,0,.154.467.072.072,0,0,0,0,.062L7.7,4.468a.072.072,0,0,0-.1-.01l-.026.02a.072.072,0,0,0-.019.1l.049.082-.084-.073a.073.073,0,0,0-.1,0L7.4,4.611a.085.085,0,0,0,0,.106l.116.14-.147-.111a.073.073,0,0,0-.1.01l-.02.023a.072.072,0,0,0,0,.1l.094.106-.135-.008a.221.221,0,0,0-.082.016.058.058,0,0,1-.08-.031l-.038-.072c-.054-.1-.111-.209-.172-.31a2.765,2.765,0,0,0-.637-.8.2.2,0,0,1-.038-.035,1.073,1.073,0,0,0-.286-.388l-.037-.036A.232.232,0,0,1,5.8,3.266l-.075-.13c-.07-.122-.14-.244-.206-.368l-.061-.115a6.535,6.535,0,0,0-.52-.871A1.064,1.064,0,0,0,4.5,1.409a2.518,2.518,0,0,0-.734-.153c-.251-.026-.5-.058-.751-.089L2.6,1.116A.221.221,0,0,1,2.43,1,1.617,1.617,0,0,0,2.29.809.5.5,0,0,0,2.2.729L2.159.7a.082.082,0,0,0-.1.015L2.041.733A.073.073,0,0,0,2.024.8a.775.775,0,0,0,.433.607c.262.108.528.206.731.279a1.889,1.889,0,0,0,1.138.1.228.228,0,0,1,.111.046,1.829,1.829,0,0,1,.5.592c.24.417.472.833.687,1.221.108.2.214.391.321.587q.135.249.272.5c.119.216.242.431.365.645a.508.508,0,0,0,.061.085.309.309,0,0,0-.059,0H6.563a.073.073,0,0,0-.072.061l-.005.03a.072.072,0,0,0,.05.082l.446.134,0,.013L6.516,5.7a.072.072,0,0,0-.084.054l-.007.029a.072.072,0,0,0,.034.079,1.135,1.135,0,0,0,.315.111c.042.01.083.02.122.032l-.445-.057A.072.072,0,0,0,6.37,6l-.007.041a.072.072,0,0,0,.054.083l.435.1c0,.011,0,.023,0,.034s0,.02-.008.015H6.825c-.1-.011-.208-.014-.31-.017H6.467c-.03,0-.059,0-.089.005l-.041,0c-.037,0-.067.054-.068.091a.072.072,0,0,0,.048.071,1.365,1.365,0,0,0,.364.063c.043,0,.085.007.128.011,0,.008,0,.014,0,.014a.472.472,0,0,1-.081.013l-.045,0c-.025,0-.05,0-.075.008l-.171.027-.067.011a.072.072,0,0,0-.061.076l0,.027a.072.072,0,0,0,.072.067h.372a.107.107,0,0,1-.075.047l-.2.041-.08.017a.072.072,0,0,0-.056.083l0,.026a.072.072,0,0,0,.071.06h.122L5.741,8.1,5.677,8.08a2.283,2.283,0,0,0-.232-.054A1.707,1.707,0,0,0,5.2,8.01H5.152a.861.861,0,0,1-.723-.369c-.266-.359-.566-.735-.917-1.148-.123-.145-.259-.282-.39-.414-.094-.1-.189-.191-.279-.289a1.508,1.508,0,0,0-.8-.46l-.223-.05c-.187-.043-.38-.086-.572-.122A1.2,1.2,0,0,1,.254,4.4Z" fill="#fff"/>
      </g>
    </g>
  </g>
</svg>
