<svg xmlns="http://www.w3.org/2000/svg" xmlns:xlink="http://www.w3.org/1999/xlink" width="25" height="25" viewBox="0 0 25 25">
  <defs>
    <clipPath id="clip-path">
      <rect id="Ret칙ngulo_5" data-name="Ret칙ngulo 5" width="25" height="25" rx="4" transform="translate(282 20)" fill="#fff"/>
    </clipPath>
  </defs>
  <g id="Grupo_de_m치scara_3" data-name="Grupo de m치scara 3" transform="translate(-282 -20)" clip-path="url(#clip-path)">
    <path id="search-solid" d="M24.656,21.614l-4.868-4.868a1.171,1.171,0,0,0-.83-.342h-.8A10.151,10.151,0,1,0,16.4,18.162v.8a1.171,1.171,0,0,0,.342.83l4.868,4.868a1.167,1.167,0,0,0,1.655,0l1.382-1.382A1.177,1.177,0,0,0,24.656,21.614ZM10.155,16.4A6.249,6.249,0,1,1,16.4,10.155,6.246,6.246,0,0,1,10.155,16.4Z" transform="translate(282.002 20)" fill="#707070"/>
  </g>
</svg>
